<svg xmlns="http://www.w3.org/2000/svg" viewBox="0 0 960 600">
  <style>
    text { font-family: "Helvetica Neue", Helvetica, Arial, "PingFang SC", "Microsoft YaHei", sans-serif; }
  </style>
  <defs>
    <marker id="arrow-blue" markerWidth="10" markerHeight="7" refX="9" refY="3.5" orient="auto">
      <polygon points="0 0, 10 3.5, 0 7" fill="#2563eb"/>
    </marker>
    <marker id="arrow-purple" markerWidth="10" markerHeight="7" refX="9" refY="3.5" orient="auto">
      <polygon points="0 0, 10 3.5, 0 7" fill="#7c3aed"/>
    </marker>
    <marker id="arrow-green" markerWidth="10" markerHeight="7" refX="9" refY="3.5" orient="auto">
      <polygon points="0 0, 10 3.5, 0 7" fill="#059669"/>
    </marker>
    <marker id="arrow-orange" markerWidth="10" markerHeight="7" refX="9" refY="3.5" orient="auto">
      <polygon points="0 0, 10 3.5, 0 7" fill="#ea580c"/>
    </marker>
  </defs>
  <text x="480" y="35" text-anchor="middle" font-size="18" font-weight="600" fill="#111827">物理机理+数据驱动双引擎架构</text>
  <rect x="40" y="60" width="160" height="60" rx="8" fill="#eff6ff" stroke="#bfdbfe" stroke-width="1.5"/>
  <text x="120" y="95" text-anchor="middle" font-size="13" fill="#111827">气象卫星数据</text>
  <rect x="220" y="60" width="160" height="60" rx="8" fill="#eff6ff" stroke="#bfdbfe" stroke-width="1.5"/>
  <text x="300" y="95" text-anchor="middle" font-size="13" fill="#111827">地面观测站</text>
  <rect x="400" y="60" width="160" height="60" rx="8" fill="#eff6ff" stroke="#bfdbfe" stroke-width="1.5"/>
  <text x="480" y="95" text-anchor="middle" font-size="13" fill="#111827">数值预报产品</text>
  <rect x="580" y="60" width="160" height="60" rx="8" fill="#eff6ff" stroke="#bfdbfe" stroke-width="1.5"/>
  <text x="660" y="95" text-anchor="middle" font-size="13" fill="#111827">地形地貌数据</text>
  <rect x="760" y="60" width="160" height="60" rx="8" fill="#eff6ff" stroke="#bfdbfe" stroke-width="1.5"/>
  <text x="840" y="95" text-anchor="middle" font-size="13" fill="#111827">遥感反演AOD</text>
  <rect x="300" y="160" width="360" height="50" rx="8" fill="#f0fdf4" stroke="#86efac" stroke-width="1.5"/>
  <text x="480" y="190" text-anchor="middle" font-size="14" font-weight="600" fill="#111827">多模态数据融合处理层</text>
  <rect x="100" y="260" width="340" height="120" rx="10" fill="#ffffff" stroke="#2563eb" stroke-width="2"/>
  <text x="270" y="290" text-anchor="middle" font-size="14" font-weight="600" fill="#2563eb">物理机理引擎</text>
  <text x="270" y="315" text-anchor="middle" font-size="12" fill="#6b7280">• 大气动力学方程约束</text>
  <text x="270" y="335" text-anchor="middle" font-size="12" fill="#6b7280">• 边界条件与初始场</text>
  <text x="270" y="355" text-anchor="middle" font-size="12" fill="#6b7280">• 沙尘传输方程</text>
  <rect x="520" y="260" width="340" height="120" rx="10" fill="#ffffff" stroke="#7c3aed" stroke-width="2"/>
  <text x="690" y="290" text-anchor="middle" font-size="14" font-weight="600" fill="#7c3aed">数据驱动引擎</text>
  <text x="690" y="315" text-anchor="middle" font-size="12" fill="#6b7280">• 时空图神经网络</text>
  <text x="690" y="335" text-anchor="middle" font-size="12" fill="#6b7280">• 多源特征融合</text>
  <text x="690" y="355" text-anchor="middle" font-size="12" fill="#6b7280">• 残差预测校正</text>
  <rect x="360" y="420" width="240" height="50" rx="8" fill="#fff7ed" stroke="#fed7aa" stroke-width="1.5"/>
  <text x="480" y="450" text-anchor="middle" font-size="13" font-weight="600" fill="#111827">门控融合机制</text>
  <rect x="320" y="510" width="320" height="50" rx="8" fill="#dcfce7" stroke="#86efac" stroke-width="1.5"/>
  <text x="480" y="540" text-anchor="middle" font-size="14" font-weight="600" fill="#111827">未来72小时沙尘浓度网格预报</text>
  <line x1="120" y1="120" x2="120" y2="160" stroke="#2563eb" stroke-width="1.5" marker-end="url(#arrow-blue)"/>
  <line x1="300" y1="120" x2="300" y2="160" stroke="#2563eb" stroke-width="1.5" marker-end="url(#arrow-blue)"/>
  <line x1="480" y1="120" x2="480" y2="160" stroke="#2563eb" stroke-width="1.5" marker-end="url(#arrow-blue)"/>
  <line x1="660" y1="120" x2="660" y2="160" stroke="#2563eb" stroke-width="1.5" marker-end="url(#arrow-blue)"/>
  <line x1="840" y1="120" x2="840" y2="160" stroke="#2563eb" stroke-width="1.5" marker-end="url(#arrow-blue)"/>
  <line x1="270" y1="210" x2="270" y2="260" stroke="#2563eb" stroke-width="1.5" marker-end="url(#arrow-blue)"/>
  <line x1="690" y1="210" x2="690" y2="260" stroke="#7c3aed" stroke-width="1.5" marker-end="url(#arrow-purple)"/>
  <path d="M 440 320 Q 480 300 520 320" stroke="#ea580c" stroke-width="1.5" fill="none" marker-end="url(#arrow-orange)"/>
  <path d="M 520 360 Q 480 380 440 360" stroke="#ea580c" stroke-width="1.5" fill="none" marker-end="url(#arrow-orange)"/>
  <line x1="270" y1="380" x2="400" y2="420" stroke="#059669" stroke-width="1.5" marker-end="url(#arrow-green)"/>
  <line x1="690" y1="380" x2="560" y2="420" stroke="#059669" stroke-width="1.5" marker-end="url(#arrow-green)"/>
  <line x1="480" y1="470" x2="480" y2="510" stroke="#2563eb" stroke-width="1.5" marker-end="url(#arrow-blue)"/>
  <g transform="translate(20, 560)">
    <line x1="0" y1="8" x2="30" y2="8" stroke="#2563eb" stroke-width="1.5" marker-end="url(#arrow-blue)"/>
    <text x="36" y="12" fill="#6b7280" font-size="11">主数据流</text>
    <line x1="100" y1="8" x2="130" y2="8" stroke="#7c3aed" stroke-width="1.5" marker-end="url(#arrow-purple)"/>
    <text x="136" y="12" fill="#6b7280" font-size="11">数据驱动</text>
    <line x1="200" y1="8" x2="230" y2="8" stroke="#ea580c" stroke-width="1.5" marker-end="url(#arrow-orange)"/>
    <text x="236" y="12" fill="#6b7280" font-size="11">引擎协同</text>
    <line x1="310" y1="8" x2="340" y2="8" stroke="#059669" stroke-width="1.5" marker-end="url(#arrow-green)"/>
    <text x="346" y="12" fill="#6b7280" font-size="11">残差反馈</text>
  </g>
</svg>