<svg xmlns="http://www.w3.org/2000/svg" viewBox="0 0 960 600">
  <defs>
    <marker id="arrow" markerWidth="10" markerHeight="7" refX="9" refY="3.5" orient="auto">
      <polygon points="0 0, 10 3.5, 0 7" fill="#2563eb"/>
    </marker>
    <style>text { font-family: Arial, sans-serif; }</style>
  </defs>
  <rect width="960" height="600" fill="#ffffff"/>
  <text x="480" y="35" text-anchor="middle" font-size="18" font-weight="bold" fill="#1e3a5f">模型体系架构</text>
  <rect x="360" y="70" width="240" height="60" rx="8" fill="#dbeafe" stroke="#2563eb" stroke-width="2"/>
  <text x="480" y="105" text-anchor="middle" font-size="14" font-weight="bold" fill="#1e3a5f">气象预警大模型</text>
  <text x="480" y="120" text-anchor="middle" font-size="11" fill="#64748b">核心模型</text>
  <rect x="80" y="180" width="160" height="50" rx="6" fill="#fef3c7" stroke="#d97706" stroke-width="1.5"/>
  <text x="160" y="205" text-anchor="middle" font-size="12" fill="#92400e">暴雨预警模型</text>
  <text x="160" y="218" text-anchor="middle" font-size="10" fill="#b45309">场景模型</text>
  <rect x="280" y="180" width="160" height="50" rx="6" fill="#fef3c7" stroke="#d97706" stroke-width="1.5"/>
  <text x="360" y="205" text-anchor="middle" font-size="12" fill="#92400e">强对流预警模型</text>
  <text x="360" y="218" text-anchor="middle" font-size="10" fill="#b45309">场景模型</text>
  <rect x="480" y="180" width="160" height="50" rx="6" fill="#fef3c7" stroke="#d97706" stroke-width="1.5"/>
  <text x="560" y="205" text-anchor="middle" font-size="12" fill="#92400e">高温预警模型</text>
  <text x="560" y="218" text-anchor="middle" font-size="10" fill="#b45309">场景模型</text>
  <rect x="680" y="180" width="200" height="50" rx="6" fill="#f0fdf4" stroke="#16a34a" stroke-width="1.5"/>
  <text x="780" y="205" text-anchor="middle" font-size="12" fill="#166534">气象预测基础模型</text>
  <text x="780" y="218" text-anchor="middle" font-size="10" fill="#15803d">辅助模型</text>
  <line x1="160" y1="180" x2="160" y2="130" stroke="#2563eb" stroke-width="1.5" marker-end="url(#arrow)"/>
  <line x1="360" y1="180" x2="360" y2="130" stroke="#2563eb" stroke-width="1.5" marker-end="url(#arrow)"/>
  <line x1="560" y1="180" x2="560" y2="130" stroke="#2563eb" stroke-width="1.5" marker-end="url(#arrow)"/>
  <line x1="780" y1="180" x2="780" y2="130" stroke="#2563eb" stroke-width="1.5" marker-end="url(#arrow)"/>
  <rect x="240" y="290" width="480" height="60" rx="8" fill="#f1f5f9" stroke="#64748b" stroke-width="1" stroke-dasharray="5,3"/>
  <text x="480" y="315" text-anchor="middle" font-size="12" fill="#475569">场景适配层：任务路由 + 提示词工程 + 输出校验</text>
  <text x="480" y="335" text-anchor="middle" font-size="11" fill="#64748b">适配气象业务场景</text>
  <line x1="160" y1="230" x2="480" y2="290" stroke="#2563eb" stroke-width="1" stroke-dasharray="4,2"/>
  <line x1="360" y1="230" x2="480" y2="290" stroke="#2563eb" stroke-width="1" stroke-dasharray="4,2"/>
  <line x1="560" y1="230" x2="480" y2="290" stroke="#2563eb" stroke-width="1" stroke-dasharray="4,2"/>
  <line x1="780" y1="230" x2="480" y2="290" stroke="#2563eb" stroke-width="1" stroke-dasharray="4,2"/>
  <rect x="360" y="400" width="240" height="50" rx="6" fill="#ede9fe" stroke="#7c3aed" stroke-width="1.5"/>
  <text x="480" y="425" text-anchor="middle" font-size="13" font-weight="bold" fill="#5b21b6">API接入层</text>
  <text x="480" y="440" text-anchor="middle" font-size="11" fill="#7c3aed">HTTP/REST | gRPC | WebSocket</text>
  <line x1="480" y1="350" x2="480" y2="400" stroke="#7c3aed" stroke-width="1.5" marker-end="url(#arrow)"/>
  <rect x="160" y="500" width="260" height="50" rx="6" fill="#f0fdf4" stroke="#16a34a" stroke-width="1"/>
  <text x="290" y="520" text-anchor="middle" font-size="12" fill="#166534">标准接口</text>
  <text x="290" y="535" text-anchor="middle" font-size="10" fill="#15803d">接入宁夏气象局业务平台</text>
  <rect x="540" y="500" width="260" height="50" rx="6" fill="#f0fdf4" stroke="#16a34a" stroke-width="1"/>
  <text x="670" y="520" text-anchor="middle" font-size="12" fill="#166534">第三方系统</text>
  <text x="670" y="535" text-anchor="middle" font-size="10" fill="#15803d">气象数据提供商</text>
  <line x1="480" y1="450" x2="290" y2="500" stroke="#16a34a" stroke-width="1.5" marker-end="url(#arrow)"/>
  <line x1="480" y1="450" x2="670" y2="500" stroke="#16a34a" stroke-width="1.5" marker-end="url(#arrow)"/>
  <rect x="400" y="575" width="160" height="20" rx="4" fill="#e2e8f0"/>
  <text x="480" y="590" text-anchor="middle" font-size="10" fill="#64748b">副标：模型能力展示</text>
</svg>
