<svg xmlns="http://www.w3.org/2000/svg" viewBox="0 0 960 600">
  <defs>
    <marker id="arrow" markerWidth="10" markerHeight="7" refX="9" refY="3.5" orient="auto">
      <polygon points="0 0, 10 3.5, 0 7" fill="#2563eb"/>
    </marker>
    <style>text { font-family: Arial, sans-serif; }</style>
  </defs>
  <rect width="960" height="600" fill="#ffffff"/>
  <text x="480" y="30" text-anchor="middle" font-size="18" font-weight="bold" fill="#1e3a5f">平台部署架构</text>
  <rect x="30" y="60" width="200" height="45" rx="6" fill="#dbeafe" stroke="#2563eb" stroke-width="1.5"/>
  <text x="130" y="82" text-anchor="middle" font-size="12" fill="#1e3a5f">宁夏气象局业务平台</text>
  <text x="130" y="95" text-anchor="middle" font-size="10" fill="#64748b">外部接入</text>
  <rect x="260" y="60" width="200" height="45" rx="6" fill="#dbeafe" stroke="#2563eb" stroke-width="1.5"/>
  <text x="360" y="82" text-anchor="middle" font-size="12" fill="#1e3a5f">微信小程序</text>
  <text x="360" y="95" text-anchor="middle" font-size="10" fill="#64748b">公众用户</text>
  <rect x="490" y="60" width="180" height="45" rx="6" fill="#dbeafe" stroke="#2563eb" stroke-width="1.5"/>
  <text x="580" y="82" text-anchor="middle" font-size="12" fill="#1e3a5f">API网关</text>
  <text x="580" y="95" text-anchor="middle" font-size="10" fill="#64748b">Spring Cloud Gateway</text>
  <line x1="230" y1="82" x2="260" y2="82" stroke="#2563eb" stroke-width="1.5" marker-end="url(#arrow)"/>
  <line x1="460" y1="82" x2="490" y2="82" stroke="#2563eb" stroke-width="1.5" marker-end="url(#arrow)"/>
  <rect x="180" y="140" width="600" height="380" rx="8" fill="#f8fafc" stroke="#e2e8f0" stroke-width="1"/>
  <text x="480" y="160" text-anchor="middle" font-size="11" fill="#94a3b8">Kubernetes 集群</text>
  <rect x="200" y="175" width="145" height="75" rx="6" fill="#fef3c7" stroke="#d97706" stroke-width="1.5"/>
  <text x="272" y="200" text-anchor="middle" font-size="11" font-weight="bold" fill="#92400e">监测数据服务</text>
  <text x="272" y="215" text-anchor="middle" font-size="10" fill="#b45309">Spring Boot</text>
  <text x="272" y="228" text-anchor="middle" font-size="9" fill="#d97706">TimescaleDB</text>
  <rect x="370" y="175" width="145" height="75" rx="6" fill="#dbeafe" stroke="#2563eb" stroke-width="1.5"/>
  <text x="442" y="200" text-anchor="middle" font-size="11" font-weight="bold" fill="#1e3a5f">预测模型服务</text>
  <text x="442" y="215" text-anchor="middle" font-size="10" fill="#2563eb">gRPC + Python</text>
  <text x="442" y="228" text-anchor="middle" font-size="9" fill="#2563eb">模型推理</text>
  <rect x="540" y="175" width="145" height="75" rx="6" fill="#fef3c7" stroke="#d97706" stroke-width="1.5"/>
  <text x="612" y="200" text-anchor="middle" font-size="11" font-weight="bold" fill="#92400e">预警发布服务</text>
  <text x="612" y="215" text-anchor="middle" font-size="10" fill="#b45309">Spring Boot</text>
  <text x="612" y="228" text-anchor="middle" font-size="9" fill="#d97706">Kafka</text>
  <rect x="710" y="175" width="145" height="75" rx="6" fill="#f0fdf4" stroke="#16a34a" stroke-width="1.5"/>
  <text x="782" y="200" text-anchor="middle" font-size="11" font-weight="bold" fill="#166534">智能体接入服务</text>
  <text x="782" y="215" text-anchor="middle" font-size="10" fill="#15803d">Spring Boot</text>
  <text x="782" y="228" text-anchor="middle" font-size="9" fill="#16a34a">宁夏移动接口</text>
  <rect x="200" y="275" width="145" height="75" rx="6" fill="#f0fdf4" stroke="#16a34a" stroke-width="1.5"/>
  <text x="272" y="300" text-anchor="middle" font-size="11" font-weight="bold" fill="#166534">场景分级服务</text>
  <text x="272" y="315" text-anchor="middle" font-size="10" fill="#15803d">交通/健康/旅游</text>
  <text x="272" y="328" text-anchor="middle" font-size="9" fill="#16a34a">Redis Cluster</text>
  <rect x="370" y="275" width="145" height="75" rx="6" fill="#ede9fe" stroke="#7c3aed" stroke-width="1.5"/>
  <text x="442" y="300" text-anchor="middle" font-size="11" font-weight="bold" fill="#5b21b6">地图服务</text>
  <text x="442" y="315" text-anchor="middle" font-size="10" fill="#7c3aed">GeoServer + PostGIS</text>
  <text x="442" y="328" text-anchor="middle" font-size="9" fill="#7c3aed">GIS空间分析</text>
  <rect x="540" y="275" width="145" height="75" rx="6" fill="#fef3c7" stroke="#d97706" stroke-width="1.5"/>
  <text x="612" y="300" text-anchor="middle" font-size="11" font-weight="bold" fill="#92400e">用户服务</text>
  <text x="612" y="315" text-anchor="middle" font-size="10" fill="#b45309">Spring Boot + Redis</text>
  <text x="612" y="328" text-anchor="middle" font-size="9" fill="#d97706">认证/权限</text>
  <rect x="710" y="275" width="145" height="75" rx="6" fill="#f1f5f9" stroke="#64748b" stroke-width="1.5"/>
  <text x="782" y="300" text-anchor="middle" font-size="11" font-weight="bold" fill="#475569">消息队列</text>
  <text x="782" y="315" text-anchor="middle" font-size="10" fill="#64748b">Apache Kafka</text>
  <text x="782" y="328" text-anchor="middle" font-size="9" fill="#64748b">异步事件流</text>
  <rect x="200" y="375" width="655" height="45" rx="6" fill="#f1f5f9" stroke="#94a3b8" stroke-width="1" stroke-dasharray="4,2"/>
  <text x="527" y="402" text-anchor="middle" font-size="11" fill="#475569">数据层：PostgreSQL + TimescaleDB + PostGIS + Redis Cluster + MinIO + Elasticsearch</text>
  <line x1="580" y1="140" x2="527" y2="375" stroke="#2563eb" stroke-width="1" stroke-dasharray="3,2" marker-end="url(#arrow)"/>
  <rect x="200" y="450" width="180" height="40" rx="6" fill="#e2e8f0" stroke="#94a3b8" stroke-width="1"/>
  <text x="290" y="475" text-anchor="middle" font-size="11" fill="#475569">ELK Stack 日志管理</text>
  <rect x="400" y="450" width="180" height="40" rx="6" fill="#e2e8f0" stroke="#94a3b8" stroke-width="1"/>
  <text x="490" y="475" text-anchor="middle" font-size="11" fill="#475569">Prometheus + Grafana</text>
  <text x="490" y="488" text-anchor="middle" font-size="9" fill="#64748b">监控告警</text>
  <rect x="600" y="450" width="180" height="40" rx="6" fill="#e2e8f0" stroke="#94a3b8" stroke-width="1"/>
  <text x="690" y="475" text-anchor="middle" font-size="11" fill="#475569">Kubernetes</text>
  <text x="690" y="488" text-anchor="middle" font-size="9" fill="#64748b">容器编排</text>
  <rect x="350" y="540" width="260" height="25" rx="4" fill="#e2e8f0"/>
  <text x="480" y="557" text-anchor="middle" font-size="10" fill="#64748b">副标：平台研发架构展示</text>
</svg>
